# xmcd
#
# Track frame offsets:
#	150
#	8865
#	28680
#	50752
#	67840
#	92572
#	107605
#	132712
#	147075
#	175200
#	192825
#	200147
#	214970
#
# Disc length: 3191 seconds
#
# Revision: 2
# Processed by: cddbd v1.5.2PL0 Copyright (c) Steve Scherf et al.
# Submitted via: audiograbber 1.83.01
#
DISCID=c00c750d
DTITLE=John Mellencamp - Mr. Happy Go Lucky
DYEAR=2005
DGENRE=Blues
TTITLE0=Overture
TTITLE1=Jerry
TTITLE2=Key West Intermezzo (I Saw You First)
TTITLE3=Just Another Day
TTITLE4=This May Not Be The End Of The World
TTITLE5=Emotional Love
TTITLE6=Mr. Bellows
TTITLE7=The Full Catastrophe
TTITLE8=Circling Around The Moon
TTITLE9=Large World Turning
TTITLE10=Jackamo Road
TTITLE11=Life Is Hard
TTITLE12=What If I Came Knocking
EXTD=YEAR: 2005
EXTT0=
EXTT1=
EXTT2=
EXTT3=
EXTT4=
EXTT5=
EXTT6=
EXTT7=
EXTT8=
EXTT9=
EXTT10=
EXTT11=
EXTT12=
PLAYORDER=
